<svg width="32" height="32" viewBox="0 0 32 32" fill="none" xmlns="http://www.w3.org/2000/svg">
<path d="M9.33301 29.3334C8.59967 29.3334 7.97212 29.0725 7.45034 28.5507C6.92767 28.0281 6.66634 27.4001 6.66634 26.6667C6.66634 25.9334 6.92767 25.3054 7.45034 24.7827C7.97212 24.261 8.59967 24.0001 9.33301 24.0001C10.0663 24.0001 10.6939 24.261 11.2157 24.7827C11.7383 25.3054 11.9997 25.9334 11.9997 26.6667C11.9997 27.4001 11.7383 28.0281 11.2157 28.5507C10.6939 29.0725 10.0663 29.3334 9.33301 29.3334ZM22.6663 29.3334C21.933 29.3334 21.3055 29.0725 20.7837 28.5507C20.261 28.0281 19.9997 27.4001 19.9997 26.6667C19.9997 25.9334 20.261 25.3054 20.7837 24.7827C21.3055 24.261 21.933 24.0001 22.6663 24.0001C23.3997 24.0001 24.0277 24.261 24.5503 24.7827C25.0721 25.3054 25.333 25.9334 25.333 26.6667C25.333 27.4001 25.0721 28.0281 24.5503 28.5507C24.0277 29.0725 23.3997 29.3334 22.6663 29.3334ZM8.19967 8.00008L11.3997 14.6667H20.733L24.3997 8.00008H8.19967ZM9.33301 22.6667C8.33301 22.6667 7.57745 22.2276 7.06634 21.3494C6.55523 20.4721 6.53301 19.6001 6.99967 18.7334L8.79967 15.4667L3.99967 5.33341H2.63301C2.25523 5.33341 1.94412 5.20541 1.69967 4.94941C1.45523 4.6943 1.33301 4.37786 1.33301 4.00008C1.33301 3.6223 1.46101 3.30541 1.71701 3.04941C1.97212 2.7943 2.28856 2.66675 2.66634 2.66675H4.83301C5.07745 2.66675 5.31079 2.73341 5.53301 2.86675C5.75523 3.00008 5.9219 3.18897 6.03301 3.43341L6.93301 5.33341H26.5997C27.1997 5.33341 27.6108 5.55564 27.833 6.00008C28.0552 6.44453 28.0441 6.91119 27.7997 7.40008L23.0663 15.9334C22.8219 16.3779 22.4997 16.7223 22.0997 16.9667C21.6997 17.2112 21.2441 17.3334 20.733 17.3334H10.7997L9.33301 20.0001H24.033C24.4108 20.0001 24.7219 20.1276 24.9663 20.3827C25.2108 20.6387 25.333 20.9556 25.333 21.3334C25.333 21.7112 25.205 22.0276 24.949 22.2827C24.6939 22.5387 24.3775 22.6667 23.9997 22.6667H9.33301ZM11.3997 14.6667H20.733H11.3997Z" fill="black"/>
</svg>
