<svg width="20" height="15" viewBox="0 0 20 15" fill="none" xmlns="http://www.w3.org/2000/svg">
<path fill-rule="evenodd" clip-rule="evenodd" d="M10.22 0H3.245V1.244H10.22V0ZM3.245 1.58691H10.22V7.26991H3.245V1.58691ZM16.4359 3.3623H11.926V7.2693H16.4359V3.3623ZM3.033 7.76367H16.881C17.6854 7.76367 18.4569 8.08321 19.0257 8.65201C19.5944 9.22081 19.914 9.99226 19.914 10.7967V11.1697C19.914 11.568 19.8355 11.9624 19.6831 12.3304C19.5307 12.6983 19.3073 13.0327 19.0257 13.3143C18.744 13.596 18.4097 13.8194 18.0417 13.9718C17.6737 14.1242 17.2793 14.2027 16.881 14.2027H3.033C2.6347 14.2027 2.2403 14.1242 1.87232 13.9718C1.50434 13.8194 1.16998 13.596 0.888344 13.3143C0.606705 13.0327 0.383297 12.6983 0.230873 12.3304C0.0784492 11.9624 0 11.568 0 11.1697V10.7967C0 9.99226 0.319546 9.22081 0.888344 8.65201C1.45714 8.08321 2.2286 7.76367 3.033 7.76367ZM2.70586 12.3812C2.98148 12.5654 3.30552 12.6637 3.637 12.6637L3.64 12.6597C4.08329 12.6589 4.50821 12.4825 4.82176 12.1691C5.13531 11.8558 5.31195 11.431 5.313 10.9877C5.313 10.6562 5.2147 10.3322 5.03054 10.0565C4.84638 9.78093 4.58462 9.56609 4.27837 9.43924C3.97213 9.31239 3.63514 9.27921 3.31003 9.34387C2.98492 9.40854 2.68628 9.56816 2.45189 9.80255C2.21749 10.0369 2.05787 10.3356 1.9932 10.6607C1.92853 10.9858 1.96172 11.3228 2.08858 11.6291C2.21543 11.9353 2.43025 12.1971 2.70586 12.3812ZM9.02486 12.3812C9.30048 12.5654 9.62452 12.6637 9.956 12.6637L9.958 12.6597C10.4015 12.6591 10.8266 12.4829 11.1404 12.1695C11.4542 11.8561 11.6309 11.4311 11.632 10.9877C11.632 10.6562 11.5337 10.3322 11.3495 10.0565C11.1654 9.78093 10.9036 9.56609 10.5974 9.43924C10.2911 9.31239 9.95414 9.27921 9.62903 9.34387C9.30392 9.40854 9.00528 9.56816 8.77089 9.80255C8.5365 10.0369 8.37687 10.3356 8.3122 10.6607C8.24754 10.9858 8.28072 11.3228 8.40758 11.6291C8.53443 11.9353 8.74925 12.1971 9.02486 12.3812ZM15.3439 12.3812C15.6195 12.5654 15.9435 12.6637 16.275 12.6637L16.281 12.6597C16.7238 12.6581 17.1479 12.4814 17.4608 12.1681C17.7737 11.8548 17.95 11.4305 17.951 10.9877C17.951 10.6562 17.8527 10.3322 17.6685 10.0565C17.4844 9.78093 17.2226 9.56609 16.9164 9.43924C16.6101 9.31239 16.2731 9.27921 15.948 9.34387C15.6229 9.40854 15.3243 9.56816 15.0899 9.80255C14.8555 10.0369 14.6959 10.3356 14.6312 10.6607C14.5665 10.9858 14.5997 11.3228 14.7266 11.6291C14.8534 11.9353 15.0682 12.1971 15.3439 12.3812ZM11.926 1.95312H16.4359V3.06613H11.926V1.95312ZM4.12042 11.306C4.18404 11.2108 4.218 11.0988 4.218 10.9843C4.218 10.8307 4.157 10.6834 4.04842 10.5749C3.93983 10.4663 3.79257 10.4053 3.63901 10.4053C3.52449 10.4053 3.41254 10.4393 3.31732 10.5029C3.2221 10.5665 3.1479 10.6569 3.10408 10.7627C3.06026 10.8685 3.04878 10.9849 3.07112 11.0972C3.09346 11.2095 3.14861 11.3127 3.22958 11.3937C3.31056 11.4747 3.41373 11.5298 3.52605 11.5522C3.63836 11.5745 3.75478 11.563 3.86058 11.5192C3.96638 11.4754 4.0568 11.4012 4.12042 11.306ZM10.537 10.9843C10.537 11.0988 10.503 11.2108 10.4394 11.306C10.3758 11.4012 10.2853 11.4754 10.1795 11.5192C10.0737 11.563 9.95734 11.5745 9.84502 11.5522C9.73271 11.5298 9.62952 11.4747 9.54855 11.3937C9.46757 11.3127 9.41244 11.2095 9.3901 11.0972C9.36776 10.9849 9.3792 10.8685 9.42303 10.7627C9.46685 10.6569 9.54107 10.5665 9.63628 10.5029C9.7315 10.4393 9.84345 10.4053 9.95797 10.4053C10.1115 10.4053 10.2588 10.4663 10.3674 10.5749C10.476 10.6834 10.537 10.8307 10.537 10.9843ZM16.7584 11.306C16.822 11.2108 16.856 11.0988 16.856 10.9843C16.856 10.8307 16.795 10.6834 16.6864 10.5749C16.5778 10.4663 16.4306 10.4053 16.277 10.4053C16.1625 10.4053 16.0505 10.4393 15.9553 10.5029C15.8601 10.5665 15.7859 10.6569 15.7421 10.7627C15.6983 10.8685 15.6868 10.9849 15.7091 11.0972C15.7315 11.2095 15.7866 11.3127 15.8676 11.3937C15.9485 11.4747 16.0517 11.5298 16.164 11.5522C16.2764 11.5745 16.3928 11.563 16.4986 11.5192C16.6044 11.4754 16.6948 11.4012 16.7584 11.306Z" fill="#656565"/>
</svg>